<!-- icon666.com - MILLIONS vector ICONS FREE --><svg version="1.1" id="Capa_1" xmlns="http://www.w3.org/2000/svg" xmlns:xlink="http://www.w3.org/1999/xlink" x="0px" y="0px" viewBox="0 0 512 512" style="enable-background:new 0 0 512 512;" xml:space="preserve"><path style="fill:#FFD63D;" d="M256,0L73.143,256L256,512c141.16,0,256-114.84,256-256S397.16,0,256,0z"></path><path style="fill:#FFE682;" d="M0,256c0,141.16,114.84,256,256,256V0C114.84,0,0,114.84,0,256z"></path><path style="fill:#EA2820;" d="M175.256,61.059V157.7L256,256l21.678-124.285L256,45C227.41,45,200.141,50.718,175.256,61.059z"></path><path d="M336.744,61.059C311.859,50.718,284.59,45,256,45v211l80.744-98.3L336.744,61.059L336.744,61.059z"></path><path style="fill:#EA2820;" d="M61.061,175.25l68.336,68.336L256,256l-72.554-103.212L106.8,106.8 C86.584,127.016,71.346,150.342,61.061,175.25z"></path><path style="fill:#333333;" d="M175.25,61.061c-24.908,10.285-48.234,25.523-68.45,45.739L256,256L175.25,61.061z"></path><path style="fill:#EA2820;" d="M61.059,336.744H157.7L256,256l-124.285-21.678L45,256C45,284.59,50.718,311.859,61.059,336.744z"></path><path style="fill:#333333;" d="M61.059,175.256C50.718,200.141,45,227.41,45,256h211L61.059,175.256z"></path><path style="fill:#EA2820;" d="M175.25,450.939l68.336-68.336L256,256l-103.212,72.554L106.8,405.2 C127.016,425.416,150.342,440.654,175.25,450.939z"></path><path style="fill:#333333;" d="M61.061,336.75c10.285,24.908,25.523,48.234,45.739,68.45L256,256L61.061,336.75z"></path><path style="fill:#D40B02;" d="M336.744,450.941V354.3L256,256l-21.678,124.285L256,467C284.59,467,311.859,461.282,336.744,450.941 z"></path><path style="fill:#333333;" d="M175.256,450.941C200.141,461.282,227.41,467,256,467V256L175.256,450.941z"></path><path style="fill:#D40B02;" d="M450.939,336.75l-68.336-68.336L256,256l72.554,103.212L405.2,405.2 C425.416,384.984,440.654,361.658,450.939,336.75z"></path><path d="M336.75,450.939c24.908-10.285,48.234-25.523,68.45-45.739L256,256L336.75,450.939z"></path><path style="fill:#D40B02;" d="M450.941,175.256H354.3L256,256l124.285,21.678L467,256C467,227.41,461.282,200.141,450.941,175.256z "></path><path d="M450.941,336.744C461.282,311.859,467,284.59,467,256H256L450.941,336.744z"></path><path style="fill:#D40B02;" d="M336.75,61.061L256,256l103.212-72.554L405.2,106.8C384.984,86.584,361.658,71.346,336.75,61.061z"></path><path d="M450.939,175.25c-10.285-24.908-25.523-48.234-45.739-68.45L256,256L450.939,175.25z"></path><path style="fill:#F37324;" d="M256,136l-85.714,120L256,376c66.169,0,120-53.831,120-120S322.169,136,256,136z"></path><path style="fill:#F7983D;" d="M136,256c0,66.169,53.831,120,120,120V136C189.831,136,136,189.831,136,256z"></path><g><rect x="198.561" y="183.57" transform="matrix(-0.7071 0.7071 -0.7071 -0.7071 515.5877 213.5766)" style="fill:#FFD63D;" width="30" height="59.999"></rect><rect x="183.565" y="283.435" transform="matrix(-0.7071 0.7071 -0.7071 -0.7071 575.6036 358.4461)" style="fill:#FFD63D;" width="59.999" height="30"></rect></g><g><rect x="283.43" y="268.43" transform="matrix(-0.7071 0.7071 -0.7071 -0.7071 720.4732 298.4302)" style="fill:#FBBD57;" width="30" height="59.999"></rect><rect x="268.425" y="198.566" transform="matrix(-0.7071 0.7071 -0.7071 -0.7071 660.4573 153.5607)" style="fill:#FBBD57;" width="59.999" height="30"></rect></g><path style="fill:#FFD63D;" d="M256,211l-32.143,45L256,301c24.813,0,45-20.187,45-45S280.813,211,256,211z"></path><path style="fill:#FFE682;" d="M211,256c0,24.813,20.187,45,45,45v-90C231.187,211,211,231.187,211,256z"></path></svg>